<svg width="270" height="33" viewBox="0 0 270 33" fill="none" xmlns="http://www.w3.org/2000/svg">
<path d="M32 16.7181C32 7.82722 24.8369 0.620117 16.002 0.620117C7.1631 0.622117 0 7.82722 0 16.7201C0 24.7531 5.85127 31.4123 13.4983 32.6201V21.3715H9.43882V16.7201H13.5023V13.1705C13.5023 9.13705 15.892 6.90933 19.5456 6.90933C21.2973 6.90933 23.1271 7.22329 23.1271 7.22329V11.1828H21.1094C19.1236 11.1828 18.5037 12.4246 18.5037 13.6985V16.7181H22.9391L22.2312 21.3695H18.5017V32.6181C26.1487 31.4103 32 24.7511 32 16.7181Z" fill="#444B51"/>
<path d="M134.857 0.620117C126.022 0.620117 118.857 7.7844 118.857 16.6201C118.857 25.4558 126.022 32.6201 134.857 32.6201C143.693 32.6201 150.857 25.4558 150.857 16.6201C150.857 7.7844 143.693 0.620117 134.857 0.620117ZM142.547 12.6808C142.557 12.8487 142.557 13.0237 142.557 13.1951C142.557 18.438 138.565 24.4773 131.268 24.4773C129.018 24.4773 126.932 23.8237 125.175 22.6987C125.497 22.7344 125.804 22.7487 126.132 22.7487C127.99 22.7487 129.697 22.1201 131.057 21.0558C129.315 21.0201 127.85 19.8773 127.35 18.3058C127.961 18.3951 128.511 18.3951 129.14 18.2344C128.242 18.0521 127.435 17.5647 126.857 16.8551C126.278 16.1454 125.963 15.2573 125.965 14.3415V14.2915C126.49 14.588 127.107 14.7701 127.754 14.7951C127.21 14.433 126.765 13.9423 126.456 13.3667C126.148 12.791 125.986 12.1482 125.986 11.4951C125.986 10.7558 126.179 10.0808 126.525 9.49512C127.521 10.7213 128.764 11.7242 130.173 12.4386C131.582 13.1529 133.126 13.5628 134.704 13.6415C134.143 10.9451 136.157 8.76297 138.579 8.76297C139.722 8.76297 140.75 9.24155 141.475 10.013C142.372 9.84512 143.229 9.5094 143.993 9.0594C143.697 9.97726 143.075 10.7523 142.25 11.2415C143.05 11.1558 143.822 10.9344 144.536 10.6237C143.997 11.4165 143.322 12.1201 142.547 12.6808Z" fill="#444B51"/>
<path d="M75.4284 0.620117C66.5918 0.620117 59.4284 7.78345 59.4284 16.6201C59.4284 25.4568 66.5918 32.6201 75.4284 32.6201C84.2651 32.6201 91.4284 25.4568 91.4284 16.6201C91.4284 7.78345 84.2651 0.620117 75.4284 0.620117ZM71.5118 23.2518H68.2718V12.8251H71.5118V23.2518ZM69.8718 11.5451C68.8484 11.5451 68.1868 10.8201 68.1868 9.92345C68.1868 9.00845 68.8684 8.30512 69.9134 8.30512C70.9584 8.30512 71.5984 9.00845 71.6184 9.92345C71.6184 10.8201 70.9584 11.5451 69.8718 11.5451ZM83.3451 23.2518H80.1051V17.4735C80.1051 16.1285 79.6351 15.2151 78.4634 15.2151C77.5684 15.2151 77.0368 15.8335 76.8018 16.4285C76.7151 16.6401 76.6934 16.9401 76.6934 17.2385V23.2501H73.4518V16.1501C73.4518 14.8485 73.4101 13.7601 73.3668 12.8235H76.1818L76.3301 14.2718H76.3951C76.8218 13.5918 77.8668 12.5884 79.6151 12.5884C81.7468 12.5884 83.3451 14.0168 83.3451 17.0868V23.2518Z" fill="#444B51"/>
<path d="M194.286 0.620117C185.449 0.620117 178.286 7.78345 178.286 16.6201C178.286 25.4568 185.449 32.6201 194.286 32.6201C203.122 32.6201 210.286 25.4568 210.286 16.6201C210.286 7.78345 203.122 0.620117 194.286 0.620117ZM195.381 20.4118C194.354 20.3335 193.924 19.8251 193.121 19.3384C192.679 21.6568 192.139 23.8801 190.539 25.0418C190.044 21.5351 191.262 18.9051 191.829 16.1101C190.864 14.4851 191.944 11.2168 193.981 12.0201C196.486 13.0134 191.811 18.0618 194.949 18.6935C198.226 19.3501 199.564 13.0068 197.532 10.9468C194.596 7.96845 188.987 10.8785 189.677 15.1418C189.844 16.1835 190.922 16.5001 190.107 17.9385C188.229 17.5218 187.667 16.0401 187.741 14.0651C187.856 10.8318 190.646 8.56678 193.442 8.25512C196.981 7.86178 200.301 9.55345 200.761 12.8834C201.276 16.6401 199.162 20.7051 195.381 20.4118Z" fill="#444B51"/>
<path d="M258.714 16.6201C258.714 17.9462 258.187 19.218 257.25 20.1557C256.312 21.0933 255.04 21.6201 253.714 21.6201C252.388 21.6201 251.116 21.0933 250.179 20.1557C249.241 19.218 248.714 17.9462 248.714 16.6201C248.714 16.3351 248.744 16.0568 248.796 15.7868H247.048V22.4485C247.048 22.9118 247.423 23.2868 247.886 23.2868H259.544C259.766 23.2863 259.979 23.1978 260.136 23.0407C260.293 22.8835 260.381 22.6705 260.381 22.4485V15.7868H258.633C258.684 16.0568 258.714 16.3351 258.714 16.6201ZM253.714 19.9535C254.152 19.9533 254.586 19.867 254.99 19.6993C255.395 19.5317 255.762 19.286 256.072 18.9763C256.381 18.6666 256.627 18.299 256.794 17.8944C256.962 17.4899 257.048 17.0563 257.048 16.6185C257.047 16.1806 256.961 15.7471 256.793 15.3426C256.626 14.9381 256.38 14.5706 256.07 14.2611C255.761 13.9516 255.393 13.7061 254.989 13.5386C254.584 13.3711 254.15 13.285 253.713 13.2851C252.828 13.2853 251.98 13.6368 251.355 14.2623C250.73 14.8877 250.379 15.7358 250.379 16.6201C250.379 17.5044 250.731 18.3524 251.356 18.9775C251.982 19.6026 252.83 19.9537 253.714 19.9535ZM257.714 13.1201H259.713C259.845 13.1201 259.973 13.0675 260.067 12.9738C260.161 12.8801 260.214 12.7529 260.214 12.6201V10.6218C260.214 10.4887 260.161 10.3611 260.067 10.2671C259.973 10.173 259.846 10.1201 259.713 10.1201H257.714C257.581 10.1201 257.454 10.173 257.359 10.2671C257.265 10.3611 257.213 10.4887 257.213 10.6218V12.6201C257.214 12.8951 257.439 13.1201 257.714 13.1201ZM253.714 0.620117C249.471 0.620117 245.401 2.30583 242.401 5.30641C239.4 8.30699 237.714 12.3767 237.714 16.6201C237.714 20.8636 239.4 24.9332 242.401 27.9338C245.401 30.9344 249.471 32.6201 253.714 32.6201C255.815 32.6201 257.896 32.2063 259.837 31.4022C261.778 30.5981 263.542 29.4196 265.028 27.9338C266.514 26.4481 267.692 24.6843 268.496 22.7431C269.3 20.8018 269.714 18.7213 269.714 16.6201C269.714 14.519 269.3 12.4384 268.496 10.4972C267.692 8.55597 266.514 6.79215 265.028 5.30641C263.542 3.82067 261.778 2.64212 259.837 1.83804C257.896 1.03397 255.815 0.620117 253.714 0.620117ZM262.048 23.1018C262.048 24.1201 261.214 24.9535 260.196 24.9535H247.233C246.214 24.9535 245.381 24.1201 245.381 23.1018V10.1385C245.381 9.12012 246.214 8.28678 247.233 8.28678H260.196C261.214 8.28678 262.048 9.12012 262.048 10.1385V23.1018Z" fill="#444B51"/>
</svg>
