<svg width="1128" height="40" viewBox="0 0 1128 40" fill="none" xmlns="http://www.w3.org/2000/svg">
<path d="M51.3529 21.0501C51.3529 26.8049 46.907 31.0456 41.4508 31.0456C35.9947 31.0456 31.5487 26.8049 31.5487 21.0501C31.5487 15.2547 35.9947 11.0546 41.4508 11.0546C46.907 11.0546 51.3529 15.2547 51.3529 21.0501ZM47.0183 21.0501C47.0183 17.4538 44.4415 14.9933 41.4508 14.9933C38.4602 14.9933 35.8834 17.4538 35.8834 21.0501C35.8834 24.6102 38.4602 27.1068 41.4508 27.1068C44.4415 27.1068 47.0183 24.6057 47.0183 21.0501Z" fill="#EA4335"/>
<path d="M72.7147 21.0501C72.7147 26.8049 68.2688 31.0456 62.8126 31.0456C57.3565 31.0456 52.9106 26.8049 52.9106 21.0501C52.9106 15.2592 57.3565 11.0546 62.8126 11.0546C68.2688 11.0546 72.7147 15.2547 72.7147 21.0501ZM68.3801 21.0501C68.3801 17.4538 65.8033 14.9933 62.8126 14.9933C59.822 14.9933 57.2452 17.4538 57.2452 21.0501C57.2452 24.6102 59.822 27.1068 62.8126 27.1068C65.8033 27.1068 68.3801 24.6057 68.3801 21.0501Z" fill="#FBBC05"/>
<path d="M93.1865 11.6584V29.6035C93.1865 36.9852 88.8874 40 83.8051 40C79.0209 40 76.1415 36.7598 75.0556 34.11L78.8296 32.5192C79.5016 34.146 81.1482 36.0658 83.8006 36.0658C87.0538 36.0658 89.0699 34.0334 89.0699 30.2073V28.7698H88.9186C87.9484 29.982 86.0792 31.041 83.7205 31.041C78.785 31.041 74.2635 26.6877 74.2635 21.0861C74.2635 15.4439 78.785 11.0546 83.7205 11.0546C86.0748 11.0546 87.9439 12.1136 88.9186 13.2898H89.0699V11.6629H93.1865V11.6584ZM89.3769 21.0861C89.3769 17.5665 87.0583 14.9933 84.1077 14.9933C81.117 14.9933 78.6115 17.5665 78.6115 21.0861C78.6115 24.5697 81.117 27.1068 84.1077 27.1068C87.0583 27.1068 89.3769 24.5697 89.3769 21.0861Z" fill="#4285F4"/>
<path d="M99.9733 1.14014V30.4326H95.7454V1.14014H99.9733Z" fill="#34A853"/>
<path d="M116.449 24.3398L119.813 26.6111C118.727 28.2379 116.11 31.041 111.589 31.041C105.981 31.041 101.793 26.6516 101.793 21.0455C101.793 15.1014 106.017 11.05 111.104 11.05C116.226 11.05 118.732 15.178 119.55 17.4087L120 18.5444L106.805 24.0784C107.815 26.0838 109.386 27.1068 111.589 27.1068C113.796 27.1068 115.327 26.0072 116.449 24.3398ZM106.093 20.7435L114.913 17.0347C114.428 15.7864 112.968 14.9166 111.251 14.9166C109.048 14.9166 105.981 16.8859 106.093 20.7435Z" fill="#EA4335"/>
<path d="M15.5452 18.4497V14.2091H29.6573C29.7953 14.9482 29.8665 15.8224 29.8665 16.7688C29.8665 19.9504 29.0076 23.8846 26.2394 26.6877C23.5469 29.5268 20.1068 31.041 15.5496 31.041C7.1028 31.041 0 24.0739 0 15.5205C0 6.9671 7.1028 0 15.5496 0C20.2225 0 23.5514 1.85669 26.0525 4.2767L23.0975 7.26904C21.304 5.56557 18.8741 4.24065 15.5452 4.24065C9.37695 4.24065 4.55274 9.27445 4.55274 15.5205C4.55274 21.7666 9.37695 26.8004 15.5452 26.8004C19.5461 26.8004 21.8247 25.1735 23.2844 23.6954C24.4682 22.4966 25.247 20.7841 25.5541 18.4452L15.5452 18.4497Z" fill="#4285F4"/>
<path d="M242.581 22.2791L241.744 24.6512H241.674C241.535 24.1163 241.279 23.3023 240.86 22.3256L236.372 11.0465H231.977V29.0232H234.884V17.9302C234.884 17.2325 234.884 16.4418 234.86 15.4651C234.837 14.9767 234.791 14.6046 234.767 14.3256H234.837C234.977 15.0232 235.14 15.5349 235.256 15.8605L240.651 28.9767H242.698L248.047 15.7442C248.163 15.4418 248.279 14.8372 248.395 14.3256H248.465C248.395 15.6512 248.349 16.8372 248.326 17.5581V28.9535H251.419V11H247.186L242.581 22.2791ZM254.349 16.0698H257.372V28.9535H254.349V16.0698ZM255.884 10.6279C255.372 10.6279 254.953 10.8139 254.605 11.1395C254.256 11.4651 254.07 11.8837 254.07 12.3953C254.07 12.8837 254.256 13.3023 254.605 13.6279C254.953 13.9535 255.372 14.1163 255.884 14.1163C256.395 14.1163 256.837 13.9302 257.163 13.6279C257.512 13.3023 257.698 12.8837 257.698 12.3953C257.698 11.907 257.512 11.4884 257.163 11.1395C256.86 10.8139 256.419 10.6279 255.884 10.6279ZM268.093 15.9535C267.535 15.8372 266.953 15.7674 266.395 15.7674C265.023 15.7674 263.767 16.0698 262.721 16.6744C261.674 17.2791 260.837 18.1163 260.302 19.1628C259.744 20.2325 259.465 21.4651 259.465 22.8837C259.465 24.1163 259.744 25.2093 260.279 26.2093C260.814 27.186 261.558 27.9767 262.558 28.5116C263.512 29.0465 264.628 29.3256 265.884 29.3256C267.326 29.3256 268.558 29.0232 269.535 28.4651L269.558 28.4418V25.6512L269.442 25.7442C269 26.0698 268.488 26.3488 267.977 26.5116C267.442 26.6977 266.953 26.7907 266.535 26.7907C265.326 26.7907 264.372 26.4418 263.698 25.6744C263 24.9302 262.651 23.907 262.651 22.6279C262.651 21.3023 263 20.2558 263.721 19.4884C264.442 18.7209 265.395 18.3256 266.558 18.3256C267.535 18.3256 268.535 18.6512 269.442 19.3023L269.558 19.3953V16.4418L269.535 16.4186C269.14 16.2558 268.698 16.0698 268.093 15.9535ZM278.07 15.8605C277.326 15.8605 276.628 16.093 276.023 16.5814C275.512 17 275.163 17.6046 274.86 18.3256H274.837V16.0698H271.814V28.9535H274.837V22.3721C274.837 21.2558 275.07 20.3256 275.581 19.6512C276.093 18.9535 276.744 18.6046 277.535 18.6046C277.814 18.6046 278.093 18.6744 278.442 18.7209C278.767 18.8139 279 18.907 279.163 19.0232L279.279 19.1163V16.093L279.209 16.0698C279 15.9302 278.581 15.8605 278.07 15.8605ZM286.302 15.7907C284.186 15.7907 282.488 16.4186 281.302 17.6512C280.093 18.8837 279.512 20.5814 279.512 22.7209C279.512 24.7209 280.116 26.3488 281.279 27.5349C282.442 28.6977 284.023 29.3023 286 29.3023C288.07 29.3023 289.721 28.6744 290.907 27.4186C292.116 26.1628 292.698 24.4884 292.698 22.4186C292.698 20.3721 292.14 18.7442 291 17.5581C289.907 16.3721 288.302 15.7907 286.302 15.7907ZM288.721 25.6977C288.163 26.4186 287.279 26.7674 286.186 26.7674C285.093 26.7674 284.209 26.4186 283.581 25.6512C282.953 24.9302 282.651 23.8837 282.651 22.5581C282.651 21.186 282.977 20.1395 283.581 19.3953C284.209 18.6512 285.07 18.2791 286.163 18.2791C287.233 18.2791 288.07 18.6279 288.674 19.3488C289.279 20.0698 289.605 21.1163 289.605 22.4884C289.558 23.8837 289.302 24.9767 288.721 25.6977ZM299.442 21.4186C298.488 21.0232 297.884 20.7209 297.605 20.4651C297.372 20.2325 297.256 19.907 297.256 19.4884C297.256 19.1395 297.395 18.7907 297.744 18.5581C298.093 18.3256 298.488 18.2093 299.07 18.2093C299.581 18.2093 300.116 18.3023 300.628 18.4418C301.14 18.5814 301.605 18.7907 301.977 19.0698L302.093 19.1628V16.3256L302.023 16.3023C301.674 16.1628 301.209 16.0232 300.651 15.907C300.093 15.8139 299.581 15.7674 299.163 15.7674C297.721 15.7674 296.535 16.1163 295.605 16.8837C294.674 17.6046 294.233 18.5814 294.233 19.7209C294.233 20.3256 294.326 20.8605 294.535 21.3023C294.744 21.7442 295.047 22.1628 295.465 22.5116C295.884 22.8372 296.488 23.2093 297.326 23.5581C298.023 23.8605 298.558 24.093 298.884 24.2791C299.209 24.4651 299.419 24.6744 299.581 24.8372C299.698 25.0232 299.767 25.2558 299.767 25.5581C299.767 26.4186 299.116 26.8372 297.791 26.8372C297.279 26.8372 296.744 26.7442 296.116 26.5349C295.488 26.3256 294.907 26.0232 294.419 25.6744L294.302 25.5814V28.5349L294.372 28.5581C294.814 28.7674 295.349 28.907 296 29.0698C296.651 29.186 297.233 29.2791 297.744 29.2791C299.302 29.2791 300.581 28.9302 301.488 28.1628C302.419 27.4186 302.907 26.4651 302.907 25.2325C302.907 24.3721 302.674 23.6046 302.163 23.0232C301.488 22.4651 300.651 21.8837 299.442 21.4186ZM310.884 15.7907C308.767 15.7907 307.07 16.4186 305.884 17.6512C304.698 18.8837 304.093 20.5814 304.093 22.7209C304.093 24.7209 304.698 26.3488 305.86 27.5349C307.023 28.6977 308.605 29.3023 310.581 29.3023C312.651 29.3023 314.302 28.6744 315.488 27.4186C316.698 26.1628 317.279 24.4884 317.279 22.4186C317.279 20.3721 316.721 18.7442 315.581 17.5581C314.488 16.3721 312.884 15.7907 310.884 15.7907ZM313.279 25.6977C312.721 26.4186 311.837 26.7674 310.744 26.7674C309.628 26.7674 308.767 26.4186 308.14 25.6512C307.512 24.9302 307.209 23.8837 307.209 22.5581C307.209 21.186 307.535 20.1395 308.14 19.3953C308.767 18.6512 309.628 18.2791 310.721 18.2791C311.767 18.2791 312.628 18.6279 313.233 19.3488C313.837 20.0698 314.163 21.1163 314.163 22.4884C314.163 23.8837 313.86 24.9767 313.279 25.6977ZM333.442 18.5581V16.0698H330.395V12.2558L330.302 12.2791L327.419 13.1395L327.349 13.1628V16.0698H322.791V14.4418C322.791 13.6977 322.977 13.1163 323.302 12.7442C323.628 12.3721 324.116 12.186 324.721 12.186C325.14 12.186 325.581 12.2791 326.07 12.4884L326.186 12.5581V9.93022L326.116 9.90697C325.698 9.76743 325.14 9.67441 324.419 9.67441C323.512 9.67441 322.721 9.88371 322 10.2325C321.279 10.6279 320.744 11.1628 320.349 11.8837C319.953 12.5814 319.744 13.3721 319.744 14.2791V16.0698H317.628V18.5349H319.744V28.9535H322.791V18.5581H327.349V25.186C327.349 27.907 328.628 29.2791 331.186 29.2791C331.605 29.2791 332.047 29.2093 332.465 29.1395C332.907 29.0465 333.233 28.9302 333.419 28.8372L333.442 28.8139V26.3256L333.326 26.4186C333.14 26.5349 332.977 26.6279 332.698 26.6977C332.465 26.7674 332.256 26.7907 332.093 26.7907C331.488 26.7907 331.07 26.6511 330.767 26.3023C330.488 25.9767 330.349 25.4418 330.349 24.6512V18.5581H333.442Z" fill="#737373"/>
<path d="M193 5H207.256V19.2558H193V5Z" fill="#F25022"/>
<path d="M208.744 5H223V19.2558H208.744V5Z" fill="#7FBA00"/>
<path d="M193 20.7442H207.256V35H193V20.7442Z" fill="#00A4EF"/>
<path d="M208.744 20.7442H223V35H208.744V20.7442Z" fill="#FFB900"/>
<path d="M413.967 19.2249H410V14.3408H414.079V13.1013C414.079 7.09318 416.811 5 422.2 5C423.659 5 424.782 5.23252 425.642 5.38788L425.231 10.1939C424.67 10.0002 424.108 9.88357 423.098 9.88357C421.377 9.88357 420.703 11.124 420.703 13.1011V14.3412H425.493V19.2251H420.703V34.5346H413.967V19.2249ZM429.01 5.46521H435.746V34.5343H429.01V5.46521ZM441.509 5.93024H448.245V11.0465H441.509V5.93024ZM441.509 14.341H448.245V34.5341H441.509V14.341ZM468.49 20.1159C467.255 19.3412 466.02 18.9921 464.411 18.9921C461.492 18.9921 459.247 21.0851 459.247 24.5735C459.247 27.7907 461.866 29.8832 464.785 29.8832C466.32 29.8832 467.854 29.5348 468.977 28.9146L469.126 34.1082C467.442 34.69 465.422 35 463.625 35C457.188 35 452.286 31.124 452.286 24.4575C452.286 17.752 457.188 13.8763 463.625 13.8763C465.646 13.8763 467.442 14.2253 468.977 15.0003L468.49 20.1159ZM478.669 22.8295H478.744L484.357 14.3408H491.729L484.956 23.6042L492.29 34.5343H484.132L478.744 24.5348H478.669V34.5343H471.933V5.46521H478.669V22.8295Z" fill="#0063DB"/>
<path d="M508.718 19.9221C507.97 19.69 507.221 19.69 506.436 19.69C503.292 19.69 501.533 22.0539 501.533 26.0076V34.5343H494.798V14.341H500.934V18.062H501.009C502.169 15.5036 503.853 13.876 506.772 13.876C507.558 13.876 508.381 13.9923 509.055 14.1083L508.718 19.9221Z" fill="#FF0084"/>
<path d="M636.93 28.6226L638.411 25.1831C640.011 26.3774 642.137 26.9984 644.239 26.9984C645.791 26.9984 646.771 26.4013 646.771 25.4936C646.747 22.9618 637.479 24.9443 637.408 18.5908C637.384 15.3662 640.25 12.8822 644.311 12.8822C646.723 12.8822 649.135 13.4793 650.855 14.8408L649.47 18.3519C647.893 17.3487 645.935 16.6322 644.072 16.6322C642.806 16.6322 641.97 17.2293 641.97 17.9936C641.994 20.4777 651.333 19.1162 651.428 25.1831C651.428 28.4793 648.634 30.7962 644.621 30.7962C641.683 30.7962 638.984 30.1035 636.93 28.6226ZM693.753 23.9411C693.013 25.2309 691.627 26.1147 690.027 26.1147C687.662 26.1147 685.752 24.2038 685.752 21.8392C685.752 19.4745 687.662 17.5637 690.027 17.5637C691.627 17.5637 693.013 18.4475 693.753 19.7373L697.838 17.4682C696.309 14.7452 693.371 12.8822 690.027 12.8822C685.083 12.8822 681.07 16.8949 681.07 21.8392C681.07 26.7834 685.083 30.7962 690.027 30.7962C693.395 30.7962 696.309 28.957 697.838 26.2102L693.753 23.9411ZM653.482 5.45383H658.594V30.4618H653.482V5.45383ZM699.844 5.45383V30.4618H704.955V22.9618L711.022 30.4618H717.567L709.852 21.5526L716.994 13.2405H710.736L704.955 20.1433V5.45383H699.844ZM673.785 23.9889C673.045 25.207 671.516 26.1147 669.796 26.1147C667.432 26.1147 665.521 24.2038 665.521 21.8392C665.521 19.4745 667.432 17.5637 669.796 17.5637C671.516 17.5637 673.045 18.5191 673.785 19.7612V23.9889ZM673.785 13.2405V15.2707C672.949 13.8615 670.871 12.8822 668.697 12.8822C664.207 12.8822 660.672 16.8471 660.672 21.8153C660.672 26.7834 664.207 30.7962 668.697 30.7962C670.871 30.7962 672.949 29.8169 673.785 28.4076V30.4379H678.896V13.2405H673.785Z" fill="black"/>
<path d="M605.33 23.965C605.33 25.7086 603.92 27.1179 602.177 27.1179C600.433 27.1179 599.024 25.7086 599.024 23.965C599.024 22.2214 600.433 20.8121 602.177 20.8121H605.33V23.965ZM606.906 23.965C606.906 22.2214 608.315 20.8121 610.059 20.8121C611.803 20.8121 613.212 22.2214 613.212 23.965V31.8472C613.212 33.5908 611.803 35 610.059 35C608.315 35 606.906 33.5908 606.906 31.8472V23.965Z" fill="#E01E5A"/>
<path d="M610.059 11.3057C608.315 11.3057 606.906 9.8965 606.906 8.15287C606.906 6.40924 608.315 5 610.059 5C611.803 5 613.212 6.40924 613.212 8.15287V11.3057H610.059ZM610.059 12.9061C611.803 12.9061 613.212 14.3153 613.212 16.0589C613.212 17.8025 611.803 19.2118 610.059 19.2118H602.153C600.409 19.2118 599 17.8025 599 16.0589C599 14.3153 600.409 12.9061 602.153 12.9061H610.059Z" fill="#36C5F0"/>
<path d="M622.694 16.0589C622.694 14.3153 624.104 12.9061 625.847 12.9061C627.591 12.9061 629 14.3153 629 16.0589C629 17.8025 627.591 19.2118 625.847 19.2118H622.694V16.0589ZM621.118 16.0589C621.118 17.8025 619.709 19.2118 617.965 19.2118C616.221 19.2118 614.812 17.8025 614.812 16.0589V8.15287C614.812 6.40924 616.221 5 617.965 5C619.709 5 621.118 6.40924 621.118 8.15287V16.0589Z" fill="#2EB67D"/>
<path d="M617.965 28.6943C619.709 28.6943 621.118 30.1035 621.118 31.8472C621.118 33.5908 619.709 35 617.965 35C616.221 35 614.812 33.5908 614.812 31.8472V28.6943H617.965ZM617.965 27.1179C616.221 27.1179 614.812 25.7086 614.812 23.965C614.812 22.2214 616.221 20.8121 617.965 20.8121H625.871C627.615 20.8121 629.024 22.2214 629.024 23.965C629.024 25.7086 627.615 27.1179 625.871 27.1179H617.965Z" fill="#ECB22E"/>
<path d="M894.926 30.8204H889.751V20.1251C889.751 18.5535 889.089 17.6846 887.309 17.6846C885.967 17.6846 885.103 18.3273 884.135 19.1003V30.8204H878.959V14.1692H883.989V15.6335C885.677 14.4998 887.608 13.7784 889.702 13.7784C893.003 13.7784 894.926 15.8296 894.926 18.9543V30.8204ZM908.854 17.4885H904.312V25.009C904.312 27.1489 905.44 27.5482 906.9 27.5482C907.408 27.5482 907.958 27.4752 908.513 27.4008L908.854 30.7717C907.664 30.9821 906.077 31.161 905.045 31.161C901.913 31.161 899.136 30.0689 899.136 26.2299V17.4885H896.499V14.1692H899.136V10.5063L904.312 9.04199V14.1692H908.854V17.4885Z" fill="#36398E"/>
<path d="M868.515 0C865.897 4.43726 867.033 8.4537 864.472 11.0159C862.416 13.0727 860.508 13.0069 858.265 13.0069C857.484 13.0069 855.969 13.0742 855.333 13.5351C854.965 12.3628 854.806 11.0731 854.806 9.84356C854.806 7.73085 855.28 5.85289 856.799 4.33563C859.707 1.42851 864.976 0.503844 868.515 0Z" fill="#009F3C"/>
<path d="M823.495 14.1692L815.195 34.3358C813.918 37.4333 811.357 39.7063 807.87 39.7063C806.125 39.7063 805.201 39.4787 804.061 39.2182L804.794 35.8989C805.715 36.1035 806.404 36.1909 807.04 36.1909C809.121 36.1909 810.229 34.4202 811.241 31.9912L811.729 30.8203L805.284 14.1692H810.85L813.878 22.421C814.243 23.4173 814.446 24.4378 814.611 25.155C814.799 24.4321 815.169 23.2326 815.538 22.2736L818.663 14.1692H823.495ZM840.531 30.8203H835.355V20.1251C835.355 18.5535 834.694 17.6846 832.913 17.6846C831.577 17.6846 830.708 18.3287 829.74 19.1002V30.8203H824.564V14.1692H829.594V15.6335C831.282 14.4998 833.214 13.7784 835.307 13.7784C838.608 13.7784 840.531 15.8296 840.531 18.9542V30.8203Z" fill="#36398E"/>
<path d="M924.739 30.8203H919.855V29.502C918.586 30.6242 916.945 31.161 915.119 31.161C912.02 31.161 909.894 29.6623 909.894 26.5219C909.894 21.0025 915.405 20.1466 919.708 20.1251V19.6871C919.708 18.3144 919.19 17.3425 916.73 17.3425C915.072 17.3425 913.182 18.1641 911.944 18.9056L910.674 15.8281C912.874 14.6358 915.604 13.7784 918.193 13.7784C922.168 13.7784 924.738 15.6792 924.738 19.0029V30.8203H924.739ZM919.708 26.3759V23.2999C917.312 23.2612 915.072 23.5003 915.072 25.7905C915.072 27.2061 916.265 27.6455 917.17 27.6455C918.243 27.6455 919.075 27.1088 919.708 26.3759ZM805.211 25.497C805.211 29.1213 801.861 31.1123 797.886 31.1123C795.297 31.1123 793.206 30.68 791 29.794L792.416 26.4246C793.728 26.9556 795.616 27.5482 797.152 27.5482C798.356 27.5482 800.035 27.4008 800.035 25.9365C800.035 25.2537 799.605 24.9002 798.812 24.6668C797.823 24.3748 796.3 24.1129 795.297 23.8366C793.187 23.2555 791.439 22.1476 791.439 19.0516C791.439 15.6177 794.369 13.4849 798.374 13.4849C801.02 13.4849 802.699 13.8342 804.186 14.2665L802.866 17.6359C802.211 17.3382 800.368 16.9031 799.057 16.9031C797.634 16.9031 796.664 17.447 796.664 18.3187C796.664 18.751 796.933 19.2978 797.69 19.5397C798.503 19.8002 799.787 20.0363 800.865 20.2725C803.069 20.7563 805.211 22.0231 805.211 25.497ZM876.689 21.8842C876.689 22.4353 876.672 23.005 876.641 23.5933H865.605C865.652 26.0152 866.86 27.4494 870.39 27.4494C871.954 27.4494 873.834 26.7395 874.641 26.1812L876.008 29.2573C873.726 30.4954 871.27 31.161 868.535 31.161C863.363 31.161 860.14 27.8302 860.14 22.5183C860.14 17.1192 864.364 13.7784 868.927 13.7784C874.611 13.7784 876.689 17.0992 876.689 21.8842ZM871.367 20.2725C871.456 18.4375 870.534 17.2938 868.729 17.2938C866.986 17.2938 865.948 18.5735 865.655 20.2725H871.367ZM860.15 32.8715C860.15 37.7267 855.309 39.9768 850.529 39.9997C846.325 40.0198 842.278 38.8102 842.278 34.7752C842.278 32.8872 843.949 31.6248 844.963 30.9663C844.399 30.6443 843.889 30.3923 843.448 29.8914C842.985 29.3646 842.618 28.596 842.618 27.3034C842.618 25.676 844.054 24.1701 845.793 23.2025C844.828 22.6944 843.547 21.8771 843.547 19.1489C843.547 15.6005 846.914 13.7297 851.311 13.7297C855.048 13.7297 858.635 14.6229 858.635 19.0029C858.635 23.1868 854.703 24.7155 850.726 24.7155C849.983 24.7155 849.321 24.5981 848.673 24.4722C848.249 24.6983 847.403 25.2594 847.403 25.8878C847.403 27.1674 849.15 27.3535 849.943 27.3535H854.043C857.848 27.3535 860.15 29.1986 860.15 32.8715ZM853.605 19.2462C853.605 17.8521 852.835 16.707 851.115 16.707C849.543 16.707 848.577 18.0367 848.577 19.2462C848.577 20.6432 849.446 21.7855 851.018 21.7855C852.745 21.7855 853.605 20.6389 853.605 19.2462ZM854.972 33.5542C854.972 32.1959 853.886 31.6992 852.775 31.6992H848.234C847.542 32.0942 846.474 32.9602 846.474 34.091C846.474 35.5539 848.444 36.5329 850.771 36.5329C853.183 36.5329 854.972 35.425 854.972 33.5542Z" fill="#36398E"/>
<path d="M1055.01 9.9999H1061.21V29.9986H1056.62V16.5496L1050.74 29.9981L1044.56 16.5327V29.9981H1040.27V9.9994H1046.4L1050.81 20.3507L1055.01 9.9999ZM1063.49 9.9999V29.9986H1075.03V26.6083H1067.96V21.52H1074.74V18.0978H1067.96V13.5097H1075.03V9.9999H1063.49ZM1092.24 20.0028C1092.24 27.4469 1100.01 33.4041 1108.2 29.4195V25.135C1101.9 29.5478 1096.41 25.1249 1096.5 20.1737C1096.56 16.8831 1098.78 13.7535 1103.05 13.5097C1105.16 13.3902 1106.58 13.9131 1108.2 15.458V11.0024C1102.28 7.49741 1092.24 11.3553 1092.24 20.0028ZM1110.08 29.9984H1114.34V10.1923H1110.08V29.9984ZM1119.67 19.2742L1126.1 10.2359H1121.13L1114.77 19.2573L1122.16 29.9984H1127.04L1119.67 19.2742Z" fill="#231F20"/>
<path d="M1077.02 9.99934V29.9981H1081.51V19.254L1088.93 29.9981H1093.71L1087.84 21.601C1090.56 20.5715 1091.44 18.2886 1091.44 16.0068C1091.44 13.7272 1089.53 9.9996 1084.89 9.9996L1077.02 9.99934ZM1081.51 13.3276H1083.47C1086.78 13.3276 1086.96 15.4931 1086.96 16.3019C1086.96 17.8469 1085.65 19.1626 1083.95 19.1626H1081.51V13.3276Z" fill="#231F20"/>
<path d="M999.999 10.0001C999.999 4.47687 1004.48 0 1010 0C1015.52 0 1020 4.47687 1020 10.0001H999.999ZM999.999 29.9999C999.999 24.4774 1004.48 19.9995 1010 19.9995C1004.48 19.9995 999.999 15.5236 999.999 10.0001C994.477 10.0001 990 14.4772 990 19.9995C990 25.5238 994.477 29.9999 999.999 29.9999ZM999.999 29.9999C999.999 35.5241 1004.48 40 1010 40C1015.52 40 1020 35.5241 1020 29.9999H999.999ZM1010 19.9995C1015.52 19.9995 1020 24.4774 1020 29.9999C1025.52 29.9999 1030 25.524 1030 19.9995C1030 14.4772 1025.52 10.0001 1020 10.0001C1020 15.5236 1015.52 19.9995 1010 19.9995Z" fill="#007A73"/>
</svg>
